<?xml version="1.0" standalone="no"?><!DOCTYPE svg PUBLIC "-//W3C//DTD SVG 1.1//EN" "http://www.w3.org/Graphics/SVG/1.1/DTD/svg11.dtd"><svg t="1507433216354" class="icon" style="" viewBox="0 0 1027 1024" version="1.1" xmlns="http://www.w3.org/2000/svg" p-id="1376" xmlns:xlink="http://www.w3.org/1999/xlink" width="20.05859375" height="20"><defs><style type="text/css"></style></defs><path d="M723.305 65.75c-82.7634375 0-159.71625 41.52-210.3665625 109.978125C462.318125 107.25125 385.3821875 65.75 302.5728125 65.75 153.3790625 65.75 32 198.4540625 32 361.5875c0 97.318125 43.4728125 165.5915625 78.42 220.44375C211.985 741.359375 467.3515625 939.6378125 478.1675 947.999375c10.42125 8.053125 22.603125 12.0853125 34.7578125 12.0853125 12.181875 0 24.3459375-4.0321875 34.753125-12.0853125 10.83-8.3615625 266.214375-206.64 367.7475-365.9690625 34.965-54.856875 78.4528125-123.1246875 78.4528125-220.44375C993.87875 198.4540625 872.495 65.75 723.305 65.75L723.305 65.75z" p-id="1377" fill="#bfbfbf"></path></svg>