<?xml version="1.0" standalone="no"?><!DOCTYPE svg PUBLIC "-//W3C//DTD SVG 1.1//EN" "http://www.w3.org/Graphics/SVG/1.1/DTD/svg11.dtd"><svg t="1525074676610" class="icon" style="" viewBox="0 0 1024 1024" version="1.1" xmlns="http://www.w3.org/2000/svg" p-id="2407" xmlns:xlink="http://www.w3.org/1999/xlink" width="20" height="20"><defs><style type="text/css"></style></defs><path d="M958.003402 928.623769L730.03534 699.887204C863.333252 548.667108 858.413196 316.951699 714.237539 172.314531 639.247614 97.064686 540.869003 59.541071 442.509834 59.541071c-98.378611 0-196.833971 37.523615-271.727704 112.77346-149.826354 150.297075-149.826354 394.860093 0 545.137724 74.893734 75.18333 173.349093 112.696712 271.727704 112.696712 92.420923 0 184.534853-33.631982 257.487376-99.82045l227.77568 228.525764c7.898901 7.898901 20.910239 7.898901 28.789697 0l1.326204-1.326205c7.994068-8.033977 7.994068-20.986987 0.114611-28.904307zM200.993199 687.144996c-133.201721-133.644813-133.201721-350.965373 0-484.610187 64.342424-64.554248 150.211117-100.233865 241.516635-100.233865 91.287099 0 177.154769 35.573193 241.517659 100.233865 133.182278 133.644813 133.182278 350.965373 0 484.610187-64.361867 64.554248-150.23056 100.222609-241.517659 100.222609-91.402733 0.001023-177.174212-35.552727-241.516635-100.222609z" p-id="2408" fill="#8a8a8a"></path></svg>