<?xml version="1.0" standalone="no"?><!DOCTYPE svg PUBLIC "-//W3C//DTD SVG 1.1//EN" "http://www.w3.org/Graphics/SVG/1.1/DTD/svg11.dtd"><svg t="1539414430349" class="icon" style="" viewBox="0 0 1024 1024" version="1.1" xmlns="http://www.w3.org/2000/svg" p-id="2766" xmlns:xlink="http://www.w3.org/1999/xlink" width="16" height="16"><defs><style type="text/css"></style></defs><path d="M225.78935679 975.96251653c-6.69498558 0-12.88784826-3.01274397-17.23958881-8.03398347-4.35174057-5.02123951-6.02548665-11.7162251-5.02123953-18.41121068l52.55563887-306.63034944L33.30851438 425.96943191c-6.19286138-6.02548665-8.36873166-14.8963438-5.69073716-23.09770072s9.70772956-14.05947012 18.24383595-15.39846672l307.8019726-44.68903141 137.58195853-279.01353341c3.84961635-7.69923401 11.7162251-12.55309878 20.25233149-12.55309748s16.40271514 4.85386478 20.25233279 12.55309748L669.3321671 342.78423306l307.96934604 44.68903141c8.53610639 1.17162315 15.56584145 7.19710979 18.24383724 15.39846672 2.6779945 8.20135821 0.50212421 17.07221408-5.69073845 23.09770072L767.078959 643.05434767l52.55563886 306.63034944c1.50637134 8.53610639-2.00849555 17.07221408-9.03823061 22.0934536s-16.06796566 5.69073846-23.76719967 1.67374608l-275.33129179-144.77906833-275.33129049 144.77906833c-3.18011871 1.67374608-6.69498558 2.51061975-10.37722851 2.51061974zM97.58037835 425.467309L296.08670739 618.95239853c5.35598898 5.18861425 7.69923401 12.72047353 6.52761086 19.91758202l-46.8649004 273.15542151 245.37123074-128.8784774c6.52761085-3.51486818 14.39421959-3.51486818 20.92183044 0l245.37122944 129.04585214-46.8649004-273.1554215c-1.17162315-7.36448454 1.17162315-14.72896907 6.52761085-19.91758204l198.50632905-193.48509083-274.32704337-39.83516532c-7.36448454-1.00424842-13.72472064-5.69073846-16.90483935-12.38572276l-122.68561473-248.55134815-122.68561471 248.55134815c-3.34749344 6.69498558-9.70772956 11.21410089-16.90483936 12.38572276l-274.4944181 39.66779189z m0 0" p-id="2767" fill="#FF7F00"></path></svg>